<svg width="18" height="18" viewBox="0 0 18 18" fill="none" xmlns="http://www.w3.org/2000/svg">
    <path
        d="M9.00008 17.3333C4.39771 17.3333 0.666748 13.6023 0.666748 8.99996C0.666748 4.39759 4.39771 0.666626 9.00008 0.666626C13.6025 0.666626 17.3334 4.39759 17.3334 8.99996C17.3284 13.6002 13.6004 17.3282 9.00008 17.3333ZM2.33341 9.14329C2.37284 12.811 5.36767 15.7579 9.03553 15.7383C12.7034 15.7185 15.6664 12.7395 15.6664 9.07162C15.6664 5.40371 12.7034 2.42477 9.03553 2.40496C5.36767 2.38534 2.37284 5.33226 2.33341 8.99996V9.14329ZM10.6667 13.1666H8.16675V9.83329H7.33341V8.16663H9.83341V11.5H10.6667V13.1666ZM9.83341 6.49996H8.16675V4.83329H9.83341V6.49996Z"
        fill="#9E9E9E" />
</svg>