<svg width="32" height="32" viewBox="0 0 32 32" fill="none" xmlns="http://www.w3.org/2000/svg">
    <rect width="3" height="32" rx="1.5" fill="#DB1414" />
    <path
        d="M30.533 24.9991H12C11.6427 24.9991 11.3126 24.8085 11.134 24.4991C10.9553 24.1897 10.9553 23.8085 11.134 23.4991L20.4 7.49909C20.5787 7.1902 20.9086 7 21.2655 7C21.6224 7 21.9522 7.1902 22.131 7.49909L31.397 23.4991C31.5755 23.8083 31.5756 24.1893 31.3972 24.4986C31.2188 24.808 30.8891 24.9987 30.532 24.9991H30.533ZM20.267 19.9991V21.9991H21.2H21.265H21.33H22.265V19.9991H20.267ZM20.267 12.9991V17.9991H22.267V12.9991H20.267Z"
        fill="#DB1414" />
</svg>