<svg width="148" height="185" viewBox="0 0 148 185" fill="none" xmlns="http://www.w3.org/2000/svg">
    <path d="M64 66.4998C61.1477 63.801 59.1693 62.7944 54.5 62.4998L24 77.4998L7.5 130L64 66.4998Z"
        fill="url(#paint0_linear)" />
    <path
        d="M52 52.5C47.13 48.2624 36 52.9999 36 52.9999L8.5 118V128.5L56.5 61.4998C56.5 61.4998 55.173 55.2609 52 52.5Z"
        fill="url(#paint1_linear)" />
    <path
        d="M39 51.4998C39.8946 49.1738 39.5 46.5729 36.5 45.9998C34.6111 45.6389 32.5759 47.961 31.5 50.5C19 80 -0.499932 130.545 0.500003 132C5.99982 140 59.5 205 59.5 205H148.5V127C148.5 127 118 89.5 101.5 68.9999C99.0855 66 94.2752 66.1371 91.5001 67.9999C55.0001 92.4999 10.9784 136.5 9.50013 128C9.00013 125.125 24 90.4999 39 51.4998Z"
        fill="#EE993A" />
    <mask id="mask0" mask-type="alpha" maskUnits="userSpaceOnUse" x="0" y="45" width="149" height="160">
        <path
            d="M39 51.4998C39.8946 49.1738 39.5 46.5729 36.5 45.9998C34.6111 45.6389 32.5759 47.961 31.5 50.5C19 80 -0.499932 130.545 0.500003 132C5.99982 140 59.5 205 59.5 205H148.5V127C148.5 127 118 89.5 101.5 68.9999C99.4148 66.4091 94.2752 66.1371 91.5001 67.9999C55.0001 92.4999 10.9784 136.5 9.50013 128C9.00013 125.125 24 90.4999 39 51.4998Z"
            fill="#F19938" />
    </mask>
    <g mask="url(#mask0)">
        <path
            d="M112 70.4998L199.966 167.435L85.1276 259.284L-8.81664e-06 152.848L57.5 107L78 89.9998L100 73.9997L103.5 72.9998L108 73.4998L112 70.4998Z"
            fill="url(#paint2_linear)" />
        <path d="M18 134.04C19.4782 142.54 63.4999 98.5395 99.9999 74.0395C102.775 72.1767 107.348 73.0046 110 75.0395"
            stroke="#F1AD61" />
        <path
            d="M-8.86254 149.935C-15.3048 142.122 -14.1938 130.566 -6.38107 124.124L-5.0545 123.03C-4.40897 122.498 -3.8537 121.865 -3.41018 121.155C-1.66598 118.365 1.64717 116.977 4.85914 117.691L13 119.5C16.4023 117.749 20.565 118.605 22.9994 121.558L87.6626 199.977C95.1528 209.061 93.8611 222.496 84.7775 229.986C75.6939 237.477 62.2582 236.185 54.768 227.101L-8.86254 149.935Z"
            fill="#4E6FFF" />
    </g>
    <path d="M26.9231 51.8965C27.1502 45.8784 31.6618 41.163 37 41.3644" stroke="url(#paint3_linear)" />
    <path
        d="M96.0402 46.683C99.5607 44.211 101.224 40.2022 100.495 36.7347C100.154 35.1133 98.2121 34.7718 96.8561 35.724L85.4552 43.7294C84.0992 44.6815 83.7611 46.6239 85.1703 47.4952C88.1842 49.3586 92.5197 49.1551 96.0402 46.683Z"
        fill="#F19938" />
    <path
        d="M84.896 6.7577C82.915 9.49191 82.5591 12.8251 83.7306 15.2963C84.4404 16.7934 86.4073 16.499 87.3794 15.1572L93.6512 6.50046C94.6232 5.15873 94.2902 3.19801 92.6464 2.99005C89.9333 2.64678 86.8769 4.02349 84.896 6.7577Z"
        fill="#E64239" />
    <path
        d="M51.5643 27.8757C53.002 30.5237 55.6972 32.0147 58.3582 31.9139C60.0139 31.8513 60.5859 29.9491 59.7953 28.493L55.5297 20.6365C54.7391 19.1804 52.8323 18.6241 51.8779 19.9785C50.3441 22.1553 50.1266 25.2278 51.5643 27.8757Z"
        fill="#4E6FFF" />
    <defs>
        <linearGradient id="paint0_linear" x1="54.5" y1="62" x2="35.75" y2="130" gradientUnits="userSpaceOnUse">
            <stop stop-color="#F1F1F1" />
            <stop offset="1" stop-color="#D0D0D0" />
        </linearGradient>
        <linearGradient id="paint1_linear" x1="32.5" y1="50.738" x2="32.5" y2="128.5" gradientUnits="userSpaceOnUse">
            <stop stop-color="#D9D9D9" />
            <stop offset="1" stop-color="#CECECE" />
        </linearGradient>
        <linearGradient id="paint2_linear" x1="172.5" y1="125.5" x2="42.5638" y2="206.066"
            gradientUnits="userSpaceOnUse">
            <stop stop-color="#DD9145" />
            <stop offset="1" stop-color="#FA8E2C" />
        </linearGradient>
        <linearGradient id="paint3_linear" x1="32.1671" y1="41.1821" x2="31.756" y2="52.0788"
            gradientUnits="userSpaceOnUse">
            <stop stop-color="#F19938" />
            <stop offset="1" stop-color="#F19938" stop-opacity="0" />
        </linearGradient>
    </defs>
</svg>