<svg width="177" height="174" viewBox="0 0 177 174" fill="none" xmlns="http://www.w3.org/2000/svg">
    <path
        d="M75.5 53C68.8212 61.5001 4.5 86.5001 4.5 86.5001L19.5 146C19.5 146 67 141.5 94 85.9999C94.227 85.5334 85.9834 88.3093 79 90C71.6335 91.7834 65.5 92.5 65.5 92.5C65 88.0001 79.9552 47.3298 75.5 53Z"
        fill="#4E6FFF" />
    <path
        d="M19.5 146C19.5 146 57.4544 142.404 84.7939 102C84.7939 102 66 122 50.5 127C42.75 129.5 36.5 123 34 120C29.1105 114.133 29 110.5 25 104C22.2983 99.6096 18.1514 95.0562 14 92C9.93481 89.0072 5.38232 89.9999 5.38232 89.9999L19.5 146Z"
        fill="#385AF2" />
    <rect x="0.308777" y="84.9268" width="5" height="95" rx="2.5" transform="rotate(-14 0.308777 84.9268)"
        fill="#E64239" />
    <path d="M98 131L106.24 133.743L98.7672 139.651L98 131Z" fill="#FBB669" />
    <path d="M150 134.506L157.17 132.921L154.07 140.238L150 134.506Z" fill="#4E6FFF" />
    <path d="M125.953 156L131.363 160.966L123.591 162.621L125.953 156Z" fill="#E64239" />
    <rect x="129.344" width="32" height="62" rx="1.51771" transform="rotate(13.3771 129.344 0)" fill="#385AF2" />
    <rect x="131.337" y="4.58545" width="26" height="49" transform="rotate(13.3771 131.337 4.58545)" fill="#4E6FFF" />
    <circle cx="131.607" cy="59.6417" r="2.04469" transform="rotate(13.3771 131.607 59.6417)" stroke="white"
        stroke-width="0.910628" />
    <path
        d="M76 101.5C76 101.5 125 117.5 132 93C135.571 80.5 116 74.5 110 84C100.56 98.9463 121.092 109.967 130.5 110.5C157 112 176 92.242 176 69.5C176 48.5 151 38 151 38"
        stroke="#4E6FFF" stroke-dasharray="5 5" />
</svg>