<svg width="175" height="165" viewBox="0 0 198 203" fill="none" xmlns="http://www.w3.org/2000/svg">
    <path fill-rule="evenodd" clip-rule="evenodd"
        d="M197.924 186.499V203H0C0.481018 199.885 3.17377 197.5 6.42352 197.5C7.31238 197.5 8.15948 197.678 8.93115 198.001C9.19458 189.396 16.2538 182.5 24.9235 182.5C25.601 182.5 26.2687 182.542 26.924 182.624L26.9236 182.55L26.9235 182.5C26.9235 173.663 34.087 166.5 42.9235 166.5C48.0063 166.5 52.5356 168.87 55.4664 172.565C55.9464 172.522 56.4324 172.5 56.9235 172.5C63.3392 172.5 68.873 176.276 71.4235 181.727C73.974 176.276 79.5078 172.5 85.9235 172.5C86.7054 172.5 87.4741 172.556 88.226 172.664L96.9235 117L113.419 181.365C115.657 180.175 118.212 179.5 120.924 179.5C122.307 179.5 123.65 179.676 124.931 180.006C125.192 170.846 132.7 163.5 141.924 163.5C148.082 163.5 153.475 166.775 156.458 171.677C157.263 171.561 158.086 171.5 158.924 171.5C163.684 171.5 167.987 173.456 171.073 176.609C171.71 173.688 174.311 171.5 177.424 171.5C179.174 171.5 180.763 172.192 181.931 173.317C181.926 173.212 181.924 173.106 181.924 173C181.924 169.41 184.834 166.5 188.424 166.5C192.013 166.5 194.924 169.41 194.924 173C194.924 173.175 194.917 173.349 194.903 173.521C195.075 173.507 195.248 173.5 195.424 173.5C196.309 173.5 197.154 173.677 197.924 173.998V186.002C197.826 186.042 197.727 186.081 197.627 186.117C197.728 186.243 197.827 186.37 197.924 186.499Z"
        fill="#F5F5F5" />
    <path d="M65.7662 94.215L75.9313 87.0914L84.3056 111.155L63.2458 118.997L65.7662 94.215Z" fill="#385AF2" />
    <path d="M132.098 94.7153L122.041 87.4392L113.305 111.374L134.244 119.532L132.098 94.7153Z" fill="#385AF2" />
    <path
        d="M85.6649 127.562C82.6618 111.934 92.0595 107.323 92.0595 107.323L98.301 107.371L97.9655 151.842C97.9655 151.842 88.6679 143.189 85.6649 127.562Z"
        fill="#E64239" />
    <path
        d="M110.631 127.75C113.87 112.17 104.543 107.418 104.543 107.418L96.7406 107.359L97.9655 151.842C97.9655 151.842 107.393 143.33 110.631 127.75Z"
        fill="#E64239" />
    <path
        d="M89.6535 119.855C87.7187 107.795 93.823 104.227 93.823 104.227L97.8744 104.257L97.6155 138.586C97.6155 138.586 91.5883 131.915 89.6535 119.855Z"
        fill="#FBB669" />
    <path
        d="M105.859 119.977C107.976 107.947 101.926 104.288 101.926 104.288L96.8616 104.25L97.6155 138.586C97.6155 138.586 103.743 132.007 105.859 119.977Z"
        fill="#FBB669" />
    <path d="M83.7952 117.152L82.3207 109.14L115.32 109.389L113.725 117.377L83.7952 117.152Z" fill="#385AF2" />
    <path
        d="M72.7282 63.5071C71.4081 29.0346 100.068 0.270996 100.068 0.270996C100.068 0.270996 127.43 30.0378 125.596 64.2455C123.761 98.4532 117.35 112.405 117.35 112.405L99.2235 112.268L98.4334 112.262L80.2623 112.125C80.2623 112.125 74.0482 97.9796 72.7282 63.5071Z"
        fill="#ECECEC" />
    <path fill-rule="evenodd" clip-rule="evenodd"
        d="M116.545 25.8637C109.132 10.5019 99.7254 0.268385 99.7254 0.268385C99.7254 0.268385 89.8441 10.1854 81.9528 25.3521C87.6647 26.17 93.9467 26.7255 100.6 26.7757C105.897 26.8157 111.287 26.4626 116.545 25.8637Z"
        fill="#385AF2" />
    <circle cx="99.7427" cy="53.2701" r="11" transform="rotate(0.432235 99.7427 53.2701)" fill="#BEE8FF"
        stroke="#385AF2" stroke-width="4" />
</svg>