<svg width="189" height="135" viewBox="0 0 189 135" fill="none" xmlns="http://www.w3.org/2000/svg">
    <path
        d="M32.003 10.8667C36.24 12.3827 39.9068 11.0397 39.9068 11.0397L41.7598 5.86134C41.7598 5.86134 36.8199 5.34168 33.8906 4.10752C30.8742 2.83665 26.8637 -5.49853e-05 26.8637 -5.49853e-05L24.8422 5.64925C24.8422 5.64925 28.2369 9.51922 32.003 10.8667Z"
        fill="#E64239" />
    <path
        d="M177.238 6.90645C180.012 3.36267 183.829 2.5407 183.829 2.5407L188.161 5.93019C188.161 5.93019 184.261 9.0068 182.443 11.6142C180.571 14.2991 178.694 18.8388 178.694 18.8388L173.969 15.1411C173.969 15.1411 174.773 10.0565 177.238 6.90645Z"
        fill="#4E6FFF" />
    <path
        d="M66.3036 116.314C63.1215 113.132 62.7677 109.243 62.7677 109.243L66.6565 105.354C66.6565 105.354 69.2385 109.597 71.6066 111.717C74.0453 113.901 78.3244 116.313 78.3244 116.313L74.082 120.556C74.082 120.556 69.1321 119.142 66.3036 116.314Z"
        fill="#FBB669" />
    <rect y="49" width="67" height="35" rx="17.5" fill="#E64239" />
    <circle cx="16.5" cy="66.5" r="3" stroke="white" />
    <circle cx="33.5" cy="66.5" r="3" stroke="white" />
    <circle cx="50.5" cy="66.5" r="3" stroke="white" />
    <path d="M10.2538 94.2039L8.78126 78.5875L21.8669 82.8577L10.2538 94.2039Z" fill="#E64239" />
    <rect x="112" y="87" width="67" height="35" rx="17.5" fill="#4E6FFF" />
    <circle cx="128.5" cy="104.5" r="3" stroke="white" />
    <circle cx="145.5" cy="104.5" r="3" stroke="white" />
    <circle cx="162.5" cy="104.5" r="3" stroke="white" />
    <path d="M122.254 132.204L120.781 116.587L133.867 120.858L122.254 132.204Z" fill="#4E6FFF" />
    <rect x="85" width="67" height="35" rx="17.5" fill="#FBB669" />
    <circle cx="101.5" cy="17.5" r="3" stroke="white" />
    <circle cx="118.5" cy="17.5" r="3" stroke="white" />
    <circle cx="135.5" cy="17.5" r="3" stroke="white" />
    <path d="M140.193 44.7331L140.25 29.478L128 34.6707L140.193 44.7331Z" fill="#FBB669" />
</svg>