<svg width="26" height="26" viewBox="0 0 26 26" fill="none" xmlns="http://www.w3.org/2000/svg">
<path fill-rule="evenodd" clip-rule="evenodd" d="M25.6858 0.314069C25.3873 0.0169681 24.9437 -0.0802088 24.5483 0.0649026L0.715001 8.73157C0.294167 8.89119 0.0158691 9.2944 0.0158691 9.74449C0.0158691 10.1946 0.294167 10.5978 0.715001 10.7574L11.115 14.9174L15.275 25.3174C15.4347 25.719 15.8179 25.9873 16.25 25.9999C16.6981 25.9907 17.0944 25.7065 17.2467 25.2849L25.9133 1.45157C26.064 1.06032 25.9754 0.617271 25.6858 0.314069ZM16.25 21.8832L13.2275 14.2999L18.4167 9.11074L16.8892 7.58324L11.6567 12.8157L4.11667 9.7499L23.1075 2.8924L16.25 21.8832Z" fill="black"/>
</svg>
