<svg width="26" height="26" viewBox="0 0 26 26" fill="none" xmlns="http://www.w3.org/2000/svg">
    <path fill-rule="evenodd" clip-rule="evenodd"
        d="M13 2.36355C18.8743 2.36355 23.6364 7.12561 23.6364 12.9999C23.6364 18.8742 18.8743 23.6363 13 23.6363C7.1257 23.6363 2.36364 18.8742 2.36364 12.9999C2.36364 7.12561 7.1257 2.36355 13 2.36355ZM13 0.59082C6.14665 0.59082 0.590912 6.14656 0.590912 12.9999C0.590912 19.8533 6.14665 25.409 13 25.409C19.8534 25.409 25.4091 19.8533 25.4091 12.9999C25.4091 6.14656 19.8534 0.59082 13 0.59082ZM9.45455 19.2045C9.29546 19.2044 9.13932 19.1615 9.0025 19.0804C8.73332 18.9208 8.56818 18.631 8.56818 18.3181V7.68173C8.56818 7.36878 8.73332 7.07906 9.0025 6.91946C9.27675 6.76112 9.61462 6.76112 9.88887 6.91946L19.6389 12.2376C19.9255 12.3924 20.1042 12.6919 20.1042 13.0176C20.1042 13.3434 19.9255 13.6429 19.6389 13.7976L9.88887 19.1158C9.75394 19.1817 9.60449 19.2122 9.45455 19.2045ZM10.3409 9.17082V16.829L17.352 12.9999L10.3409 9.17082Z"
        fill="black" />
</svg>