<svg width="18" height="10" viewBox="0 0 18 10" fill="none" xmlns="http://www.w3.org/2000/svg">
	<path
		d="M13.1667 9.16666H10.6667V7.49999H13.1667C14.5475 7.49999 15.6667 6.38071 15.6667 4.99999C15.6667 3.61928 14.5475 2.49999 13.1667 2.49999H10.6667V0.833328H13.1667C15.4679 0.833328 17.3334 2.69881 17.3334 4.99999C17.3334 7.30118 15.4679 9.16666 13.1667 9.16666ZM7.33341 9.16666H4.83341C2.53223 9.16666 0.666748 7.30118 0.666748 4.99999C0.666748 2.69881 2.53223 0.833328 4.83341 0.833328H7.33341V2.49999H4.83341C3.4527 2.49999 2.33341 3.61928 2.33341 4.99999C2.33341 6.38071 3.4527 7.49999 4.83341 7.49999H7.33341V9.16666ZM13.1667 5.83333H4.83341V4.16666H13.1667V5.83333Z"
		fill="#FF206E" />
</svg>